<svg xmlns="http://www.w3.org/2000/svg" viewBox="0 0 100 100">
    <defs>
        <path id="mui" fill-rule="evenodd" clip-rule="evenodd" d="M30.343 21.976a1 1 0 00.502-.864l.018-5.787a1 1 0 01.502-.864l3.137-1.802a1 1 0 011.498.867v10.521a1 1 0 01-.502.867l-11.839 6.8a1 1 0 01-.994.001l-9.291-5.314a1 1 0 01-.504-.868v-5.305c0-.006.007-.01.013-.007.005.003.012 0 .012-.007v-.006c0-.004.002-.008.006-.01l7.652-4.396c.007-.004.004-.015-.004-.015a.008.008 0 01-.008-.008l.015-5.201a1 1 0 00-1.5-.87l-5.687 3.277a1 1 0 01-.998 0L6.666 9.7a1 1 0 00-1.499.866v9.4a1 1 0 01-1.496.869l-3.166-1.81a1 1 0 01-.504-.87l.028-16.43A1 1 0 011.527.86l10.845 6.229a1 1 0 00.996 0L24.21.86a1 1 0 011.498.868v16.434a1 1 0 01-.501.867l-5.678 3.27a1 1 0 00.004 1.735l3.132 1.783a1 1 0 00.993-.002l6.685-3.839zM31 7.234a1 1 0 001.514.857l3-1.8A1 1 0 0036 5.434V1.766A1 1 0 0034.486.91l-3 1.8a1 1 0 00-.486.857v3.668z" fill="#007fff"></path>
        <path id="hexagon"
            d="M 727.1 906.1 H 272.9 L 44.9 508 l 228 -398.1 h 454.3 l 228 398.1 L 727.1 906.1 z" />
    </defs>
    <use id="outer" href="#hexagon" transform="translate(0) matrix(1,0,0,1,0,0)" />
    <use id="inner" href="#hexagon" transform="scale(0.8) matrix(1,0,0,1,0,0)" transform-origin="center" />
    <use id="logo" href="#mui" stroke="white" transform="translate(32,35)"/>
    <style>
        :root {
            --primary: #AB6C82;
            --secondary: #475C7A;
        }


        #mui {
            stroke: white;
            fill: white;
        }

        #hexagon {
            transform: scale(0.1);
        }

        #outer {
            stroke: var(--primary);
            fill: none;
            stroke-width: 50;
        }

        #inner {
            stroke: var(--secondary);
            fill: var(--secondary);
            stroke-width: 65;

        }
    </style>
</svg>